HIERARCHY
ROOT root
{
	OFFSET	0	13.1	24.9
	CHANNELS 6  Xposition Yposition Zposition Xrotation Yrotation Zrotation
	JOINT spine_1
	{
		OFFSET	0	9.99999	0
		CHANNELS 3  Xrotation Yrotation Zrotation
		JOINT spine_2
		{
			OFFSET	0	112	-10
			CHANNELS 3  Xrotation Yrotation Zrotation
			JOINT spine_3
			{
				OFFSET	0	206.5	19.3
				CHANNELS 3  Xrotation Yrotation Zrotation
				JOINT spine_4
				{
					OFFSET	0	110.4	14.6
					CHANNELS 3  Xrotation Yrotation Zrotation
					JOINT neck_1
					{
						OFFSET	0	71.8	-50.3
						CHANNELS 3  Xrotation Yrotation Zrotation
						JOINT neck_2
						{
							OFFSET	0	86.2	-25.8
							CHANNELS 3  Xrotation Yrotation Zrotation
							JOINT head_ee
							{
								OFFSET	0	179.8	-8.7
								CHANNELS 3  Xrotation Yrotation Zrotation
								End Site
								{
									OFFSET	1	0	0
								}
							}
						}
					}
					JOINT left_clavicle
					{
						OFFSET	-43.2	22.4	-70.8
						CHANNELS 3  Xrotation Yrotation Zrotation
						JOINT left_shoulder
						{
							OFFSET	-93.9	-5.79999	48.7
							CHANNELS 3  Xrotation Yrotation Zrotation
							JOINT left_elbow
							{
								OFFSET	-291.4	-30.8	15.2
								CHANNELS 3  Xrotation Yrotation Zrotation
								JOINT left_lowarm_twist
								{
									OFFSET	-110.7	-3.89999	13.6
									CHANNELS 3  Xrotation Yrotation Zrotation
									JOINT left_hand
									{
										OFFSET	-110.7	-3.89999	13.6
										CHANNELS 3  Xrotation Yrotation Zrotation
										JOINT left_ee
										{
											OFFSET	-80.8	-5.10001	12.1
											CHANNELS 3  Xrotation Yrotation Zrotation
											End Site
											{
												OFFSET	1	0	0
											}
										}
									}
								}
							}
						}
					}
					JOINT right_clavicle
					{
						OFFSET	43.2	22.4	-70.8
						CHANNELS 3  Xrotation Yrotation Zrotation
						JOINT right_shoulder
						{
							OFFSET	93.9	-5.79999	48.7
							CHANNELS 3  Xrotation Yrotation Zrotation
							JOINT right_elbow
							{
								OFFSET	291.4	-30.8	15.2
								CHANNELS 3  Xrotation Yrotation Zrotation
								JOINT right_lowarm_twist
								{
									OFFSET	110.7	-3.89999	13.6
									CHANNELS 3  Xrotation Yrotation Zrotation
									JOINT right_hand
									{
										OFFSET	110.7	-3.89999	13.6
										CHANNELS 3  Xrotation Yrotation Zrotation
										JOINT right_ee
										{
											OFFSET	80.8	-5.10001	12.1
											CHANNELS 3  Xrotation Yrotation Zrotation
											End Site
											{
												OFFSET	1	0	0
											}
										}
									}
								}
							}
						}
					}
				}
			}
		}
	}
	JOINT left_hip
	{
		OFFSET	-82.8	-127.5	0.300001
		CHANNELS 3  Xrotation Yrotation Zrotation
		JOINT left_knee
		{
			OFFSET	-28.2	-396.7	2.2
			CHANNELS 3  Xrotation Yrotation Zrotation
			JOINT left_ankle
			{
				OFFSET	-11.7	-411.3	35.4
				CHANNELS 3  Xrotation Yrotation Zrotation
				JOINT left_toes
				{
					OFFSET	0	-60	-88.6
					CHANNELS 3  Xrotation Yrotation Zrotation
					JOINT left_foot_ee
					{
						OFFSET	-22.5	-16.5	-42.2
						CHANNELS 3  Xrotation Yrotation Zrotation
						End Site
						{
							OFFSET	1	0	0
						}
					}
				}
			}
		}
	}
	JOINT right_hip
	{
		OFFSET	82.8	-127.5	0.300001
		CHANNELS 3  Xrotation Yrotation Zrotation
		JOINT right_knee
		{
			OFFSET	28.2	-396.7	2.2
			CHANNELS 3  Xrotation Yrotation Zrotation
			JOINT right_ankle
			{
				OFFSET	11.7	-411.3	35.4
				CHANNELS 3  Xrotation Yrotation Zrotation
				JOINT right_toes
				{
					OFFSET	0	-60	-88.6
					CHANNELS 3  Xrotation Yrotation Zrotation
					JOINT right_foot_ee
					{
						OFFSET	22.5	-16.5	-42.2
						CHANNELS 3  Xrotation Yrotation Zrotation
						End Site
						{
							OFFSET	1	0	0
						}
					}
				}
			}
		}
	}
}
MOTION
Frames: 16
Frame Time: 0.02
3200.76 721.226 -1525.13 -0.653156 66.9365 0.615399 -0.641271 0.719009 2.54454 -0.63784 0.555692 2.5851 -0.609812 -0.0280056 2.64396 -0.619356 0.389765 2.61524 -16.8521 20.5234 3.42224 -18.6428 37.515 11.5013 -0.0 0.0 -0.0 -2.34017 20.0362 -1.09948 -24.8039 -8.70311 74.8881 0.670227 -18.3668 0.108355 4.34259 0.132635 -0.538697 0.0562887 5.26495 2.57075 -0.0 0.0 -0.0 13.6067 26.9078 -26.9713 10.3306 26.3114 -67.4924 1.7303 40.5977 -0.64006 29.7427 -0.0742349 3.75633 4.32885 -6.56278 -32.9116 0.0 0.0 0.0 22.6631 11.5672 -9.35811 -1.38034 0.0543695 0.20485 6.21552 2.11001 -0.899343 -39.6218 0.0 0.0 -0.0 0.0 -0.0 -15.7203 15.0856 1.34574 -9.51989 -0.273373 -1.43375 27.2094 -1.73423 3.59453 -5.95065 0.0 0.0 0.0 0.0 0.0 
3188.24 718.68 -1521.36 -1.1784 66.5321 0.917132 -0.635121 0.718138 2.5456 -0.631687 0.554755 2.5861 -0.603698 -0.0288593 2.64473 -0.613248 0.389044 2.61614 -16.2689 20.5957 3.0858 -17.9866 37.7733 10.9927 -0.0 0.0 -0.0 -2.30304 19.7489 -1.09558 -23.6047 -9.00397 74.4952 0.686566 -18.7835 0.11356 4.21786 0.129397 -0.523093 -0.00292993 5.32837 2.2083 -0.0 0.0 -0.0 13.704 27.1302 -27.1688 10.4097 26.5216 -67.8103 1.69827 40.0696 -0.619329 29.638 -0.0774016 3.74333 4.10066 -6.93722 -31.2605 0.0 0.0 0.0 23.5103 10.9582 -9.2936 -3.44492 0.12643 0.51349 4.498 1.45541 -0.655088 -39.7518 0.0 0.0 -0.0 0.0 -0.0 -15.5094 15.1633 1.54108 -9.31422 -0.269999 -1.40237 26.5399 -2.47981 3.51573 -5.90258 0.0 0.0 0.0 0.0 0.0 
3173.04 710.774 -1513.67 -1.66664 66.5697 1.66179 -0.521708 0.719995 2.44985 -0.518545 0.562695 2.49066 -0.49143 0.00494145 2.55339 -0.500296 0.40801 2.52061 -15.9223 20.1236 1.49439 -17.5984 37.7204 9.20086 -0.0 0.0 -0.0 -2.0543 19.4773 -0.773572 -22.677 -9.33165 74.4131 0.700479 -19.1366 0.11808 4.26144 0.130532 -0.528544 0.0422188 5.37657 2.52449 -0.0 0.0 -0.0 13.5931 27.449 -26.8694 10.5793 27.1968 -66.6068 1.58768 38.1819 -0.549535 29.0284 -0.0953608 3.66753 3.93624 -8.20222 -30.4323 0.0 0.0 0.0 24.4232 10.6961 -8.95783 -4.85534 0.169237 0.725709 7.22533 3.88352 -1.03923 -38.7504 0.0 0.0 -0.0 0.0 -0.0 -16.0459 15.1414 1.80137 -8.48678 -0.255287 -1.27626 28.4453 -5.25839 3.72021 -4.9814 0.0 0.0 0.0 0.0 0.0 
3149.71 712.42 -1512.06 -3.30277 66.8785 3.64243 -0.684923 0.496484 2.44607 -0.681659 0.339877 2.47268 -0.664458 -0.216291 2.48654 -0.673042 0.179 2.4895 -15.7539 20.7702 3.49218 -17.3663 37.8191 11.2169 -0.0 0.0 -0.0 -2.15645 19.0072 -1.00649 -21.8318 -9.55189 74.0354 0.742733 -20.2 0.132302 4.21275 0.129264 -0.522453 0.00236152 5.27925 2.22268 -0.0 0.0 -0.0 13.2607 27.0868 -26.1465 9.65763 26.8729 -67.2014 1.63181 38.9474 -0.577046 29.6317 -0.0775917 3.74254 3.98112 -7.24443 -30.4478 0.0 0.0 0.0 23.8464 10.2502 -8.99194 -5.80064 0.194996 0.868493 3.25944 1.31449 -0.476551 -39.5911 0.0 0.0 -0.0 0.0 -0.0 -15.9343 15.6204 2.01702 -10.1586 -0.283132 -1.53126 26.1184 -1.98983 3.47014 -5.873 0.0 0.0 0.0 0.0 0.0 
3130.42 714.576 -1510.9 -3.08235 66.6494 3.49732 -0.645233 0.546259 2.45585 -0.641962 0.388929 2.48561 -0.622513 -0.169438 2.51013 -0.631232 0.228989 2.5054 -14.2939 20.8359 3.53772 -15.6168 37.7186 10.6697 -0.0 0.0 -0.0 -2.0324 18.6862 -0.874567 -20.8401 -10.0206 73.4508 0.735937 -20.0299 0.129965 4.23155 0.129754 -0.524805 0.042577 5.36632 2.52261 -0.0 0.0 -0.0 13.1338 27.5887 -25.7889 8.82421 26.6209 -67.567 1.49241 36.4731 -0.491761 29.2504 -0.0889149 3.69515 3.80277 -8.19274 -29.4173 0.0 0.0 0.0 23.5137 10.1553 -8.7232 -7.79493 0.241588 1.17098 7.36857 1.75245 -1.06295 -38.3318 0.0 0.0 -0.0 0.0 -0.0 -15.5972 15.7703 1.96803 -10.9217 -0.293367 -1.64791 25.64 -5.05111 3.40575 -5.04327 0.0 0.0 0.0 0.0 0.0 
3111.84 708.48 -1510.02 -1.74003 67.2596 2.22179 -0.655537 0.487558 2.40721 -0.652375 0.333439 2.43334 -0.635789 -0.212629 2.44685 -0.644101 0.176354 2.44973 -12.4308 20.9634 2.57731 -13.4641 38.2625 9.07526 -0.0 0.0 -0.0 -2.10171 18.4535 -1.01888 -20.574 -10.3948 73.4031 0.762686 -20.6971 0.139273 3.7954 0.118178 -0.470294 0.224927 5.44522 3.75217 -0.0 0.0 -0.0 13.5532 26.981 -26.8377 8.44908 27.0442 -66.7681 1.33204 33.4174 -0.399869 30.0522 -0.0647381 3.79472 3.54836 -9.31736 -27.8938 0.0 0.0 0.0 23.181 10.4255 -8.19284 -10.5146 0.288101 1.58567 11.3819 4.25329 -1.61303 -38.9901 0.0 0.0 -0.0 0.0 -0.0 -15.8615 17.0128 2.46207 -16.9494 -0.319483 -2.57197 29.1767 -4.60483 3.80092 -3.06804 0.0 0.0 0.0 0.0 0.0 
3083.81 708.449 -1500.33 -1.2308 66.87 1.71542 -0.695765 0.551039 2.50082 -0.69237 0.390841 2.53079 -0.672392 -0.179776 2.55445 -0.681426 0.225774 2.5508 -11.0185 20.272 -0.64169 -11.8252 38.7837 5.24258 -0.0 0.0 -0.0 -1.3614 18.1278 0.0529003 -17.7741 -11.1499 71.3204 0.827999 -22.3016 0.163212 4.19716 0.128856 -0.520504 0.289481 7.41091 4.97131 -0.0 0.0 -0.0 13.0187 27.0501 -25.5924 6.13045 27.5932 -67.1178 1.35415 33.8521 -0.412112 31.3004 -0.0243343 3.94903 3.16732 -13.0784 -26.3135 0.0 0.0 0.0 20.2649 11.4422 -6.15648 -9.99888 0.280794 1.50688 18.6969 9.05597 -2.56918 -36.5448 0.0 0.0 -0.0 0.0 -0.0 -15.2734 18.9118 2.19656 -20.1637 -0.293657 -3.0644 31.4554 -10.3912 4.0536 -2.18831 0.0 0.0 0.0 0.0 0.0 
3058.56 710.452 -1502.46 1.49242 68.2831 -1.13726 -0.774006 0.579092 2.50969 -0.770599 0.418273 2.54142 -0.749199 -0.158806 2.57069 -0.758335 0.249043 2.56353 -12.0921 20.038 -0.468183 -13.087 38.3481 5.7701 -0.0 0.0 -0.0 -1.56918 19.9476 0.0204004 -18.3912 -13.8354 69.1347 0.915894 -24.4038 0.198059 4.04193 0.124772 -0.501095 0.609977 6.76426 6.81043 -0.0 0.0 -0.0 13.1277 26.7102 -25.8865 3.51624 27.2949 -66.3691 1.25639 31.8958 -0.35904 34.225 0.0834415 4.30691 3.04247 -14.0142 -25.7094 0.0 0.0 0.0 17.7341 11.1882 -5.03232 -11.4704 0.299766 1.73187 19.9195 9.99551 -2.72411 -34.4855 0.0 0.0 -0.0 0.0 -0.0 -16.2542 20.912 2.04889 -24.4808 -0.215605 -3.7221 34.2239 -11.1774 4.34241 -3.05819 0.0 0.0 0.0 0.0 0.0 
3041.83 714.743 -1502.67 5.34248 68.6001 -5.16782 -0.925409 0.537252 2.51284 -0.921975 0.376318 2.5419 -0.902333 -0.206706 2.56127 -0.911431 0.200257 2.56178 -12.807 19.4349 -1.72237 -13.9107 38.04 4.66707 -0.0 0.0 -0.0 -1.38532 20.0498 0.306232 -17.9807 -16.5246 67.0741 1.00976 -26.5738 0.238458 3.98778 0.123335 -0.494328 0.812887 6.38323 7.99589 -0.0 0.0 -0.0 13.1259 26.7916 -25.8723 2.10527 27.6576 -65.9713 1.16725 30.0364 -0.313172 35.4715 0.134912 4.45771 2.73788 -16.1524 -24.2194 0.0 0.0 0.0 16.4017 12.0541 -4.30638 -13.3776 0.315745 2.02405 21.3672 11.8088 -2.90895 -32.792 0.0 0.0 -0.0 0.0 -0.0 -16.4487 23.2278 2.12477 -27.6009 -0.128454 -4.19295 38.951 -14.4104 4.82901 -2.03154 0.0 0.0 0.0 0.0 0.0 
3013.34 711.412 -1498.87 7.35191 68.8041 -7.09185 -1.0545 0.486141 2.60522 -1.05078 0.319438 2.63085 -1.03291 -0.288264 2.63444 -1.04257 0.131264 2.64691 -15.6602 19.3597 -2.52 -17.3698 38.5069 5.10452 -0.0 0.0 -0.0 -1.71419 20.4791 -0.107974 -15.8348 -17.7436 66.0786 1.31878 -33.1544 0.392589 4.35532 0.132964 -0.54029 0.911372 6.73033 8.78118 -0.0 0.0 -0.0 12.5422 26.5852 -24.5538 -1.00394 27.689 -65.9863 1.24799 31.7237 -0.354614 36.4286 0.176655 4.57273 2.74635 -20.7991 -25.5249 0.0 0.0 0.0 14.091 12.1225 -3.18438 -12.5957 0.31037 1.90419 23.9904 11.638 -3.22451 -32.2733 0.0 0.0 -0.0 0.0 -0.0 -16.7071 23.7551 1.85615 -30.2637 -0.0338758 -4.59063 40.8315 -17.3036 5.04655 -0.244205 0.0 0.0 0.0 0.0 0.0 
2994.7 717.871 -1495.78 9.0266 69.3827 -9.01502 -0.908572 0.423441 2.54997 -0.904992 0.260377 2.57173 -0.890464 -0.325974 2.56425 -0.899631 0.0829514 2.58354 -14.8134 19.4607 -2.31349 -16.3567 38.5546 4.97906 -0.0 0.0 -0.0 -1.44796 20.0363 0.212227 -13.9847 -18.5719 64.7953 1.35038 -33.7784 0.410016 3.93158 0.121837 -0.487305 0.86456 7.37988 8.72453 -0.0 0.0 -0.0 12.9543 26.5231 -25.5091 -3.69028 27.5329 -65.3818 1.12334 29.0937 -0.291503 36.607 0.184646 4.59409 2.44545 -21.9243 -23.8252 0.0 0.0 0.0 11.7242 11.8108 -1.65002 -11.2551 0.29735 1.69891 25.4192 14.7514 -3.41335 -30.7249 0.0 0.0 -0.0 0.0 -0.0 -14.8758 24.7459 0.684754 -32.3132 0.0514624 -4.89354 41.6338 -20.0248 5.17738 1.74227 -0.0 -0.0 0.0 0.0 0.0 
2974.03 721.021 -1492.26 10.5667 70.3208 -10.6297 -0.641287 0.293967 2.55593 -0.637662 0.130786 2.56944 -0.629398 -0.440286 2.53484 -0.638362 -0.0345687 2.57253 -14.6878 19.4799 -2.18123 -16.2025 38.5092 5.05513 -0.0 0.0 -0.0 -1.37749 19.7129 0.267037 -12.0772 -19.2118 63.6948 1.42691 -35.2525 0.453382 3.64054 0.113967 -0.450961 0.823476 7.70181 8.57914 -0.0 0.0 -0.0 12.9808 26.4728 -25.5764 -6.62888 27.246 -65.4863 1.01756 26.7506 -0.241958 37.0803 0.206176 4.65064 2.30482 -24.154 -23.4738 0.0 0.0 0.0 9.39182 11.4042 -0.232718 -10.3444 0.285767 1.55965 26.2571 14.2685 -3.50682 -30.3673 0.0 0.0 -0.0 0.0 -0.0 -13.2771 25.4437 -0.0408576 -35.5594 0.208691 -5.36668 41.3524 -22.4548 5.21656 3.07334 -0.0 -0.0 0.0 0.0 0.0 
2951.63 723.705 -1487.43 9.81325 69.418 -10.7202 -0.308494 0.260019 2.64336 -0.304612 0.0913485 2.65454 -0.298216 -0.482516 2.61194 -0.30773 -0.0641044 2.65533 -16.4792 19.4264 -1.13525 -18.2962 37.8849 6.73521 -0.0 0.0 -0.0 -1.76688 21.1195 -0.0813171 -10.43 -19.7326 63.2475 1.55431 -37.5922 0.529042 3.37019 0.106492 -0.417235 0.903705 9.06768 9.62935 -0.0 0.0 -0.0 12.2932 23.7821 -24.2874 -9.03279 27.4942 -66.0245 1.08622 28.2831 -0.273684 38.574 0.277175 4.82794 2.08688 -25.6402 -22.4694 0.0 0.0 0.0 7.19891 7.77255 1.71173 -11.5654 0.300792 1.74641 28.074 11.2569 -3.6922 -30.9796 0.0 0.0 -0.0 0.0 -0.0 -12.7257 28.8326 -0.298142 -39.3952 0.428738 -5.91344 40.2038 -25.6698 5.20984 2.96154 -0.0 -0.0 0.0 0.0 0.0 
2934.02 726.793 -1488.25 12.4367 69.3564 -13.2434 -0.285555 0.256767 2.59389 -0.281816 0.0912477 2.60496 -0.275603 -0.470912 2.5637 -0.28477 -0.0602578 2.60586 -17.7286 19.1262 -2.39533 -19.8027 38.0178 5.97195 -0.0 0.0 -0.0 -1.76342 19.8499 -0.281215 -8.1014 -19.9843 61.8737 1.74648 -40.8613 0.650618 4.10674 0.126484 -0.509197 0.735148 8.75027 8.40624 -0.0 0.0 -0.0 12.9293 26.1942 -25.4909 -11.6281 27.2002 -65.6652 0.965572 25.5621 -0.219042 37.734 0.236679 4.72846 2.15948 -27.501 -23.3473 0.0 0.0 0.0 3.59702 7.16341 2.8663 -7.88458 0.243435 1.18461 28.2228 13.1405 -3.72127 -29.8029 0.0 0.0 -0.0 0.0 -0.0 -8.28877 26.3842 -2.18673 -42.0168 0.600037 -6.27828 40.6045 -25.4208 5.23971 3.78876 -0.0 -0.0 0.0 0.0 0.0 
2918.57 734.32 -1485.41 12.2815 67.9795 -13.0957 -0.274219 0.344641 2.55788 -0.270597 0.181233 2.57461 -0.260332 -0.37573 2.5535 -0.269429 0.0321233 2.58077 -20.3285 19.2637 -2.12216 -22.9536 38.1064 7.39076 -0.0 0.0 -0.0 -1.89988 19.5596 -0.53047 -6.29867 -20.5354 61.3415 1.86867 -42.7856 0.732105 4.57413 0.138556 -0.567682 0.666802 9.35063 8.19279 -0.0 0.0 -0.0 12.7458 24.8434 -25.2204 -13.6162 27.0851 -64.9797 0.980655 25.9094 -0.225591 38.0633 0.252382 4.76754 2.16994 -28.3829 -23.6039 0.0 0.0 0.0 1.54587 3.82268 3.46841 -6.89705 0.221915 1.03459 27.8947 12.6712 -3.68104 -29.9206 0.0 0.0 -0.0 0.0 -0.0 -5.77305 27.6252 -2.30435 -43.6745 0.71693 -6.50486 40.5129 -25.3562 5.22881 3.46802 -0.0 -0.0 0.0 0.0 0.0 
2906.18 735.99 -1485.24 13.3087 67.5587 -14.2188 -0.222974 0.341052 2.54666 -0.219383 0.178365 2.56319 -0.209353 -0.373817 2.54206 -0.218369 0.032208 2.56918 -24.1331 19.2361 -0.988254 -27.4098 37.3807 9.94928 -0.0 0.0 -0.0 -2.23156 19.0297 -1.11527 -4.79112 -21.3428 60.9844 2.07 -45.7136 0.872642 4.97208 0.148457 -0.617552 0.654808 9.95112 8.34634 -0.0 0.0 -0.0 13.0287 26.081 -25.7338 -15.6734 26.888 -64.5786 0.987519 26.0668 -0.228599 37.885 0.243852 4.74639 2.18318 -29.637 -23.9462 0.0 0.0 0.0 0.190637 1.57356 3.97935 -6.58283 0.214526 0.98694 27.9745 12.1894 -3.68671 -29.5774 0.0 0.0 -0.0 0.0 -0.0 -3.73731 27.9885 -3.4234 -46.6488 0.942993 -6.90272 40.1609 -25.2874 5.19284 3.80053 -0.0 -0.0 0.0 0.0 0.0 
